<?xml version="1.0" standalone="no"?>
<!DOCTYPE svg PUBLIC "-//W3C//DTD SVG 20010904//EN"
 "http://www.w3.org/TR/2001/REC-SVG-20010904/DTD/svg10.dtd">
<svg version="1.0" xmlns="http://www.w3.org/2000/svg"
 width="409.600000pt" height="409.600000pt" viewBox="0 0 409.600000 409.600000"
 preserveAspectRatio="xMidYMid meet">
<metadata>
Created by potrace 1.13, written by Peter Selinger 2001-2015
</metadata>
<g transform="translate(0.000000,409.600000) scale(0.080000,-0.080000)"
fill="#000000" stroke="none">
<path d="M2434 4169 c-150 -9 -315 -38 -473 -84 -613 -176 -1294 -674 -1847
-1349 -150 -184 -150 -168 0 -352 553 -675 1234 -1173 1847 -1349 386 -111
763 -116 1149 -14 628 166 1328 669 1896 1363 150 184 150 168 0 352 -698 852
-1565 1392 -2296 1430 -58 3 -116 6 -130 8 -14 1 -79 -1 -146 -5z m376 -384
c495 -108 870 -487 977 -985 13 -61 18 -128 18 -240 0 -112 -5 -179 -18 -240
-108 -503 -484 -879 -987 -987 -118 -25 -362 -25 -480 0 -503 108 -879 484
-987 987 -13 61 -18 128 -18 240 0 112 5 179 18 240 82 381 317 692 656 868
139 72 216 96 431 136 53 10 318 -3 390 -19z"/>
<path d="M2360 3674 c-540 -98 -930 -566 -930 -1114 0 -627 503 -1130 1130
-1130 627 0 1130 503 1130 1130 0 552 -393 1019 -937 1115 -106 18 -290 18
-393 -1z m344 -550 c96 -25 193 -81 266 -154 112 -112 170 -252 170 -410 0
-158 -58 -298 -170 -410 -112 -112 -252 -170 -410 -170 -158 0 -298 58 -410
170 -228 228 -228 592 0 820 71 71 161 124 255 151 77 23 218 24 299 3z"/>
</g>
</svg>
